<svg width="125" height="26" viewBox="0 0 125 26" fill="none" xmlns="http://www.w3.org/2000/svg">
<path d="M18.5394 3.86997L0 13.9307V17.1608L18.5664 7.08544L18.5394 3.86997Z" fill="#8950FA"/>
<path d="M13.3519 0.97168L13.3789 4.27036L0 11.5306V8.21735L13.3519 0.97168Z" fill="#8950FA"/>
<path d="M10.5502 13.8356L13.5263 12.2206L20.6522 16.0875V19.3176L10.5502 13.8356Z" fill="#8950FA"/>
<path d="M20.6522 8.35362V13.6875L15.7377 11.0205L20.6522 8.35362Z" fill="#8950FA"/>
<path d="M8.33882 15.0356L18.5394 20.5712L10.3261 25.0283L0.125487 19.4927L3.15133 17.8507L10.3746 21.7706L12.5859 20.5705L5.36271 16.6507L8.33882 15.0356Z" fill="#8950FA"/>
<path d="M38.4474 13.6507V16.9335C38.4474 17.7684 38.1845 18.5849 37.6913 19.282C37.1982 19.9791 36.4963 20.5261 35.6728 20.8553C34.8492 21.1845 33.9401 21.2814 33.058 21.134C32.1759 20.9867 31.3595 20.6015 30.7101 20.0262L32.3992 18.3703C32.6655 18.606 32.9926 18.7736 33.3489 18.8568C33.7051 18.9401 34.0784 18.9362 34.4326 18.8456C34.7868 18.7549 35.1098 18.5806 35.3704 18.3394C35.631 18.0983 35.8203 17.7985 35.92 17.4691C35.0279 17.8868 34.0138 18.0219 33.0318 17.8539C32.0498 17.686 31.1535 17.2241 30.4788 16.5385C29.8041 15.8528 29.388 14.9809 29.2936 14.0549C29.1992 13.1289 29.4316 12.1995 29.9556 11.4078C30.4797 10.6161 31.2666 10.0053 32.1971 9.66807C33.1276 9.33085 34.1508 9.28567 35.1114 9.53938C36.0719 9.79308 36.9174 10.3318 37.5195 11.0738C38.1216 11.8158 38.4473 12.7205 38.4474 13.6507ZM35.9999 13.6507C36.0002 13.2578 35.8755 12.8736 35.6415 12.5468C35.4074 12.22 35.0746 11.9651 34.685 11.8146C34.2955 11.664 33.8668 11.6244 33.4531 11.7009C33.0394 11.7773 32.6594 11.9664 32.361 12.2441C32.0627 12.5218 31.8595 12.8757 31.7771 13.261C31.6947 13.6463 31.7368 14.0457 31.8981 14.4087C32.0594 14.7718 32.3327 15.082 32.6833 15.3004C33.034 15.5187 33.4462 15.6352 33.868 15.6352C34.433 15.6348 34.9747 15.4257 35.3744 15.0536C35.7741 14.6816 35.999 14.177 35.9999 13.6507ZM48.9723 9.39671V17.9654H46.5218L46.5348 17.6123C45.9306 17.8966 45.2673 18.0552 44.5909 18.077C43.9144 18.0988 43.2409 17.9833 42.6171 17.7386C42.0637 17.5217 41.561 17.2064 41.1371 16.8102C40.713 16.4144 40.3747 15.9462 40.1404 15.4313C39.7796 14.6359 39.6816 13.7583 39.8592 12.9108C40.0368 12.0632 40.4817 11.2843 41.1371 10.6737C41.5619 10.2786 42.0644 9.96343 42.6171 9.74525C43.2412 9.50034 43.9151 9.38492 44.5919 9.40699C45.2687 9.42906 45.9322 9.58809 46.5364 9.87305L46.5217 9.39671H48.9723ZM46.3387 14.7707C46.5327 14.4584 46.6349 14.1041 46.6352 13.7434C46.6356 13.3826 46.5339 13.0282 46.3405 12.7156C46.1471 12.4031 45.8687 12.1435 45.5335 11.963C45.1982 11.7825 44.8178 11.6874 44.4306 11.6873C44.0433 11.687 43.6627 11.7816 43.3271 11.9618C42.9915 12.1419 42.7128 12.4012 42.5188 12.7135C42.3249 13.0259 42.2227 13.3803 42.2224 13.7411C42.2222 14.1019 42.3239 14.4564 42.5173 14.769C42.7107 15.0816 42.9891 15.3413 43.3244 15.5218C43.6598 15.7024 44.0402 15.7976 44.4275 15.7977C44.8148 15.7979 45.1953 15.7031 45.5308 15.5228C45.8663 15.3425 46.145 15.0831 46.3387 14.7707ZM52.6117 11.6188V13.4223C52.6124 14.0639 52.8862 14.6791 53.3732 15.1328C53.8602 15.5864 54.5206 15.8416 55.2093 15.8422V18.1251C54.5462 18.1256 53.8896 18.0043 53.2769 17.7681C52.6642 17.5319 52.1075 17.1855 51.6387 16.7487C51.1698 16.3119 50.798 15.7933 50.5444 15.2225C50.2909 14.6518 50.1606 14.04 50.1611 13.4223V7.52313L52.6117 6.76219V9.48803H55.2093V11.6188L52.6117 11.6188ZM56.7763 16.7599C56.2411 16.2613 55.8462 15.6475 55.6265 14.9728C55.4067 14.298 55.369 13.5832 55.5167 12.8917C55.6643 12.2001 55.9928 11.5532 56.4729 11.0081C56.9531 10.4631 57.5701 10.0367 58.2694 9.76691C58.9686 9.49709 59.7285 9.39208 60.4817 9.4612C61.2349 9.53032 61.9582 9.77143 62.5875 10.1632C63.2168 10.5549 63.7327 11.0852 64.0895 11.707C64.4463 12.3289 64.6329 13.0231 64.6329 13.7282V14.8316H58.1387C58.3198 15.1011 58.5647 15.3284 58.8547 15.496C59.1447 15.6636 59.472 15.7671 59.8116 15.7986C60.1512 15.83 60.4941 15.7886 60.8138 15.6774C61.1335 15.5663 61.4217 15.3884 61.6562 15.1574L63.3782 16.6733C62.9552 17.0898 62.4469 17.4232 61.8833 17.6537C61.3198 17.8842 60.7123 18.0071 60.0969 18.0151C59.4814 18.0232 58.8705 17.9163 58.3002 17.7007C57.7299 17.4851 57.2117 17.1652 56.7763 16.7599ZM61.9241 12.6247C61.7234 12.3258 61.4444 12.0792 61.1133 11.9083C60.7822 11.7374 60.4099 11.6478 60.0314 11.6478C59.6529 11.6478 59.2806 11.7374 58.9495 11.9083C58.6184 12.0792 58.3394 12.3258 58.1387 12.6247H61.9241ZM71.0163 13.7541L69.5983 17.9654H67.561L64.4226 9.48803H66.9924L68.5821 13.8956L70.0296 9.48803H72.0178L73.493 13.9018L75.0728 9.48803H77.6426L74.5042 17.9654H72.4344L71.0163 13.7541ZM86.7335 9.39671V17.9654H84.2829L84.296 17.6122C83.6918 17.8966 83.0285 18.0552 82.3521 18.077C81.6756 18.0988 81.0021 17.9833 80.3783 17.7386C79.8249 17.5217 79.3222 17.2064 78.8983 16.8102C78.4742 16.4144 78.1358 15.9462 77.9016 15.4313C77.5407 14.6359 77.4428 13.7583 77.6204 12.9108C77.7979 12.0632 78.2429 11.2843 78.8983 10.6737C79.3231 10.2786 79.8256 9.96342 80.3783 9.74524C81.0024 9.50034 81.6763 9.38492 82.3531 9.40698C83.0299 9.42905 83.6934 9.58809 84.2976 9.87304L84.2829 9.39671H86.7335ZM84.0999 14.7707C84.2939 14.4584 84.3961 14.1041 84.3964 13.7434C84.3967 13.3826 84.2951 13.0282 84.1017 12.7156C83.9083 12.4031 83.6299 12.1435 83.2947 11.963C82.9594 11.7825 82.579 11.6874 82.1918 11.6873C81.8045 11.687 81.4239 11.7816 81.0883 11.9618C80.7527 12.1419 80.4739 12.4012 80.28 12.7135C80.0861 13.0259 79.9839 13.3803 79.9836 13.7411C79.9833 14.1019 80.085 14.4564 80.2785 14.769C80.4719 15.0816 80.7503 15.3413 81.0856 15.5218C81.4209 15.7024 81.8014 15.7976 82.1887 15.7977C82.576 15.7979 82.9565 15.7031 83.292 15.5228C83.6275 15.3425 83.9062 15.0831 84.0999 14.7707ZM91.0389 17.1541L87.399 9.48803H90.0929L92.2952 14.2914L94.3423 9.48803H96.966L91.9963 20.9789H89.3937L91.0389 17.1541ZM96.1964 16.578C96.1975 16.3945 96.2374 16.213 96.3141 16.044C96.3907 15.8749 96.5024 15.7217 96.6429 15.593C96.7833 15.4643 96.9496 15.3628 97.1323 15.2943C97.315 15.2257 97.5105 15.1915 97.7075 15.1936C98.1013 15.1939 98.4789 15.3399 98.7572 15.5995C99.0356 15.8591 99.1919 16.211 99.1919 16.5779C99.1919 16.9448 99.0356 17.2967 98.7572 17.5563C98.4789 17.8158 98.1013 17.9619 97.7075 17.9622C97.5105 17.9643 97.3151 17.9301 97.1324 17.8616C96.9497 17.7931 96.7833 17.6916 96.6429 17.5629C96.5024 17.4343 96.3907 17.281 96.3141 17.112C96.2375 16.943 96.1975 16.7615 96.1964 16.578ZM106.429 9.50935V11.6401H103.832V17.9654H101.381V9.50173C101.381 8.88401 101.511 8.27226 101.764 7.70147C102.018 7.13068 102.39 6.61205 102.858 6.17526C103.327 5.73846 103.884 5.39207 104.497 5.15589C105.109 4.9197 105.766 4.79837 106.429 4.79883V7.08181C105.74 7.0824 105.08 7.33754 104.593 7.79124C104.106 8.24493 103.832 8.86011 103.832 9.50174V9.50936L106.429 9.50935ZM120.577 13.1864V17.9654H118.127V13.1864C118.127 12.8211 117.971 12.4708 117.694 12.2124C117.416 11.9541 117.04 11.809 116.648 11.809C116.256 11.809 115.88 11.9541 115.603 12.2124C115.326 12.4708 115.17 12.8211 115.17 13.1864V17.9654H112.719V13.1864C112.719 13.0054 112.681 12.8261 112.607 12.6589C112.533 12.4916 112.424 12.3396 112.287 12.2115C112.149 12.0835 111.986 11.9819 111.807 11.9126C111.627 11.8433 111.435 11.8076 111.241 11.8076C111.046 11.8076 110.854 11.8433 110.675 11.9126C110.495 11.9819 110.332 12.0835 110.195 12.2115C110.057 12.3396 109.948 12.4916 109.874 12.6589C109.8 12.8261 109.762 13.0054 109.762 13.1864V17.9654H107.312V9.39671H109.762V9.79395C110.462 9.53008 111.228 9.45923 111.969 9.58984C112.711 9.72045 113.397 10.047 113.944 10.5306C114.502 10.0378 115.202 9.70802 115.958 9.58218C116.715 9.45634 117.494 9.53993 118.2 9.82259C118.906 10.1053 119.508 10.5746 119.93 11.1725C120.353 11.7704 120.578 12.4706 120.577 13.1864Z" fill="black"/>
</svg>
