<svg width="1024" height="768" viewBox="0 0 1024 768" fill="none" xmlns="http://www.w3.org/2000/svg">
<path d="M353.436 383.368V406.109C353.436 411.892 351.74 417.549 348.557 422.378C345.374 427.207 340.845 430.996 335.53 433.277C330.215 435.557 324.348 436.228 318.655 435.207C312.962 434.186 307.694 431.518 303.503 427.533L314.404 416.062C316.122 417.695 318.233 418.856 320.533 419.432C322.832 420.009 325.241 419.982 327.527 419.354C329.812 418.726 331.897 417.519 333.579 415.848C335.26 414.178 336.482 412.101 337.125 409.819C331.368 412.713 324.824 413.649 318.487 412.485C312.149 411.322 306.364 408.122 302.01 403.372C297.656 398.623 294.971 392.582 294.362 386.168C293.752 379.753 295.252 373.315 298.634 367.831C302.016 362.346 307.095 358.115 313.1 355.779C319.105 353.443 325.708 353.13 331.907 354.887C338.106 356.645 343.562 360.377 347.448 365.517C351.333 370.657 353.436 376.924 353.436 383.368ZM337.641 383.368C337.643 380.646 336.838 377.985 335.328 375.721C333.817 373.457 331.669 371.691 329.155 370.648C326.642 369.605 323.875 369.331 321.205 369.861C318.536 370.39 316.083 371.7 314.158 373.624C312.232 375.547 310.921 377.999 310.389 380.668C309.857 383.337 310.129 386.104 311.17 388.619C312.211 391.134 313.975 393.283 316.237 394.796C318.5 396.308 321.161 397.115 323.883 397.115C327.529 397.112 331.025 395.664 333.604 393.086C336.184 390.509 337.636 387.014 337.641 383.368ZM421.359 353.899V413.257H405.544L405.628 410.811C401.729 412.781 397.449 413.879 393.083 414.03C388.718 414.181 384.371 413.381 380.345 411.686C376.774 410.183 373.53 407.999 370.794 405.255C368.057 402.513 365.874 399.27 364.362 395.703C362.033 390.193 361.401 384.113 362.547 378.242C363.693 372.371 366.565 366.975 370.794 362.745C373.536 360.008 376.779 357.825 380.345 356.314C384.373 354.617 388.722 353.817 393.09 353.97C397.458 354.123 401.74 355.225 405.639 357.199L405.544 353.899H421.359ZM404.363 391.126C405.615 388.963 406.275 386.509 406.277 384.01C406.279 381.511 405.623 379.055 404.374 376.89C403.126 374.725 401.33 372.927 399.166 371.677C397.003 370.426 394.548 369.767 392.049 369.767C389.549 369.764 387.093 370.42 384.928 371.668C382.762 372.916 380.963 374.712 379.711 376.876C378.46 379.039 377.8 381.494 377.798 383.994C377.797 386.493 378.453 388.949 379.701 391.115C380.95 393.28 382.746 395.079 384.91 396.33C387.074 397.581 389.529 398.24 392.029 398.241C394.528 398.242 396.984 397.585 399.149 396.336C401.315 395.088 403.113 393.291 404.363 391.126ZM444.846 369.292V381.786C444.85 386.23 446.618 390.492 449.761 393.635C452.903 396.777 457.165 398.545 461.61 398.549V414.364C457.33 414.367 453.093 413.526 449.139 411.89C445.185 410.254 441.592 407.855 438.566 404.829C435.541 401.803 433.141 398.21 431.505 394.257C429.869 390.303 429.028 386.065 429.031 381.786V340.92L444.846 335.649V354.532H461.61V369.292L444.846 369.292ZM471.723 404.906C468.269 401.453 465.72 397.2 464.302 392.526C462.884 387.852 462.641 382.9 463.593 378.11C464.546 373.319 466.666 368.838 469.764 365.062C472.863 361.286 476.845 358.333 481.358 356.464C485.87 354.594 490.774 353.867 495.635 354.346C500.496 354.825 505.164 356.495 509.225 359.209C513.287 361.922 516.616 365.596 518.918 369.904C521.221 374.211 522.425 379.02 522.425 383.905V391.548H480.515C481.683 393.415 483.264 394.99 485.135 396.151C487.007 397.312 489.119 398.029 491.311 398.247C493.503 398.465 495.715 398.178 497.779 397.408C499.842 396.638 501.702 395.405 503.215 393.805L514.328 404.306C511.598 407.192 508.318 409.501 504.681 411.098C501.044 412.694 497.124 413.546 493.152 413.602C489.18 413.658 485.237 412.917 481.557 411.424C477.876 409.93 474.532 407.714 471.723 404.906ZM504.944 376.261C503.649 374.19 501.848 372.482 499.711 371.298C497.575 370.114 495.172 369.493 492.729 369.493C490.287 369.493 487.884 370.114 485.747 371.298C483.611 372.482 481.81 374.19 480.515 376.261H504.944ZM563.621 384.084L554.469 413.257H541.322L521.068 354.532H537.652L547.911 385.065L557.253 354.532H570.084L579.604 385.107L589.799 354.532H606.384L586.13 413.257H572.772L563.621 384.084ZM665.052 353.899V413.257H649.237L649.322 410.811C645.423 412.781 641.142 413.879 636.776 414.03C632.411 414.181 628.064 413.381 624.039 411.686C620.467 410.183 617.223 407.999 614.487 405.255C611.751 402.513 609.567 399.27 608.055 395.703C605.726 390.193 605.094 384.113 606.24 378.242C607.386 372.371 610.258 366.975 614.487 362.745C617.229 360.008 620.472 357.825 624.039 356.313C628.066 354.617 632.415 353.817 636.783 353.97C641.151 354.123 645.433 355.225 649.332 357.199L649.237 353.899H665.052ZM648.056 391.126C649.308 388.963 649.968 386.509 649.97 384.01C649.972 381.511 649.316 379.055 648.068 376.89C646.819 374.725 645.023 372.927 642.859 371.677C640.696 370.426 638.241 369.767 635.742 369.767C633.242 369.764 630.786 370.42 628.621 371.668C626.455 372.916 624.656 374.712 623.404 376.876C622.153 379.039 621.493 381.494 621.491 383.994C621.49 386.493 622.146 388.949 623.394 391.115C624.643 393.28 626.439 395.079 628.603 396.33C630.767 397.581 633.222 398.24 635.722 398.241C638.221 398.242 640.677 397.585 642.842 396.336C645.008 395.088 646.806 393.291 648.056 391.126ZM692.837 407.637L669.347 354.532H686.732L700.945 387.806L714.156 354.532H731.088L699.016 434.132H682.22L692.837 407.637ZM726.121 403.646C726.128 402.375 726.386 401.118 726.881 399.947C727.375 398.776 728.096 397.714 729.003 396.823C729.909 395.932 730.982 395.228 732.161 394.753C733.34 394.278 734.602 394.041 735.873 394.056C738.415 394.058 740.851 395.07 742.648 396.868C744.444 398.666 745.453 401.104 745.453 403.645C745.453 406.187 744.444 408.625 742.648 410.423C740.851 412.221 738.415 413.233 735.873 413.235C734.602 413.25 733.341 413.013 732.162 412.538C730.983 412.063 729.909 411.36 729.003 410.469C728.096 409.578 727.375 408.516 726.881 407.345C726.386 406.174 726.128 404.917 726.121 403.646ZM792.159 354.679V369.439H775.395V413.257H759.58V354.627C759.577 350.347 760.418 346.11 762.054 342.156C763.69 338.202 766.09 334.609 769.115 331.583C772.141 328.557 775.734 326.158 779.688 324.522C783.642 322.885 787.88 322.045 792.159 322.048V337.863C787.714 337.867 783.453 339.635 780.31 342.777C777.167 345.92 775.399 350.182 775.395 354.627V354.679L792.159 354.679ZM883.465 380.152V413.257H867.65V380.152C867.65 377.621 866.644 375.194 864.855 373.405C863.066 371.615 860.639 370.61 858.108 370.61C855.577 370.61 853.15 371.615 851.361 373.405C849.572 375.194 848.566 377.621 848.566 380.152V413.257H832.751V380.152C832.753 378.898 832.507 377.656 832.028 376.497C831.549 375.338 830.846 374.285 829.96 373.398C829.074 372.511 828.022 371.808 826.864 371.327C825.705 370.847 824.464 370.6 823.21 370.6C821.956 370.6 820.715 370.847 819.556 371.327C818.398 371.808 817.346 372.511 816.459 373.398C815.573 374.285 814.871 375.338 814.392 376.497C813.913 377.656 813.667 378.898 813.668 380.152V413.257H797.853V353.899H813.668V356.651C818.183 354.823 823.128 354.332 827.913 355.237C832.699 356.142 837.123 358.404 840.659 361.754C844.255 358.34 848.774 356.056 853.656 355.184C858.537 354.312 863.568 354.891 868.123 356.849C872.679 358.807 876.561 362.059 879.288 366.2C882.014 370.342 883.467 375.193 883.465 380.152ZM140.535 390.426L260.849 320.963L261.024 343.164L140.535 412.728V390.426ZM227.359 323.727L227.185 300.952L140.535 350.979V373.855L227.359 323.727ZM228.316 378.619L209.002 389.77L274.56 427.619V405.318L228.316 378.619ZM274.56 388.747V351.92L242.667 370.333L274.56 388.747ZM260.85 436.274L194.651 398.055L175.337 409.206L222.214 436.27L207.863 444.556L160.986 417.492L141.35 428.829L207.548 467.048L260.85 436.274Z" fill="#8152F1"/>
</svg>
