<?xml version="1.0" encoding="utf-8"?>
<!-- Generator: Adobe Illustrator 28.0.0, SVG Export Plug-In . SVG Version: 6.00 Build 0)  -->
<svg version="1.1" xmlns="http://www.w3.org/2000/svg" xmlns:xlink="http://www.w3.org/1999/xlink" x="0px" y="0px"
	 viewBox="0 0 1166.5 318.6" style="enable-background:new 0 0 1166.5 318.6;" xml:space="preserve">
<style type="text/css">
	.st0{fill:#15161A;}
	.st1{fill:#FFFFFF;}
	.st2{fill:#00ECFF;}
	.st3{fill:none;stroke:#FFFFFF;stroke-miterlimit:10;}
	.st4{opacity:0.5;}
	.st5{fill:#15161A;stroke:#FFFFFF;stroke-miterlimit:10;}
	.st6{fill:none;stroke:#FFFFFF;stroke-width:4;stroke-miterlimit:10;stroke-dasharray:0.9993,0.9993;}
	.st7{fill:none;stroke:#FFFFFF;stroke-width:0.5;stroke-miterlimit:10;}
	.st8{fill:url(#SVGID_1_);}
	.st9{fill:url(#SVGID_00000041271855181978264750000007079683548828514478_);}
	.st10{fill:url(#SVGID_00000148655232097605432780000013568833326314592949_);}
	.st11{fill:url(#SVGID_00000057148962889192338760000014342930547371264694_);}
	.st12{fill:url(#SVGID_00000052083255655425563850000000084641282833484162_);}
	.st13{fill:url(#SVGID_00000021116963780593689210000018305015210070746300_);}
	.st14{fill:url(#SVGID_00000111190832033910654490000014698144950998393757_);}
	.st15{fill:url(#SVGID_00000044890477810508703020000007644836705179331758_);}
	.st16{fill:none;stroke:#FFFFFF;stroke-width:4;stroke-miterlimit:10;stroke-dasharray:0.9994,0.9994;}
	.st17{fill:none;stroke:#FFFFFF;stroke-width:4;stroke-miterlimit:10;}
	.st18{fill:none;stroke:#15161A;stroke-miterlimit:10;}
	.st19{fill:none;stroke:#FFFFFF;stroke-width:2;stroke-miterlimit:10;}
</style>
<g id="BG">
</g>
<g id="Layer_2">
	<g>
		<g>
			<g>
				<g>
					<g>
						<path class="st2" d="M63.8,318.6c-19.5,0-35.5-5.7-46.8-17c-19.3-19.3-22.3-52.4-8.3-93.1C22.3,168.7,50.6,126,88.3,88.3l0,0
							c0,0,0,0,0,0c37.7-37.7,80.4-66,120.2-79.6c40.7-13.9,73.8-11,93.1,8.3c19.3,19.3,22.3,52.4,8.3,93.1
							c-13.6,39.8-41.9,82.5-79.6,120.2c-37.7,37.7-80.4,66-120.2,79.6C93.2,315.7,77.6,318.6,63.8,318.6z M254.8,7.3
							c-13,0-27.8,2.7-43.9,8.3c-38.8,13.3-80.5,40.9-117.4,77.9l0,0c-36.9,36.9-64.6,78.6-77.9,117.4c-13,37.9-10.6,68.3,6.6,85.5
							c17.2,17.2,47.6,19.6,85.5,6.6c38.8-13.3,80.5-40.9,117.4-77.9c36.9-36.9,64.6-78.6,77.9-117.4c13-37.9,10.6-68.3-6.6-85.5
							C286.5,12.3,272.3,7.3,254.8,7.3z"/>
					</g>
					<g>
						<path class="st2" d="M254.8,318.6c-13.8,0-29.4-2.9-46.3-8.7C168.7,296.3,126,268,88.3,230.3c-37.7-37.7-66-80.4-79.6-120.2
							C-5.3,69.4-2.3,36.3,17,17s52.4-22.3,93.1-8.3c39.8,13.6,82.5,41.9,120.2,79.6l0,0c37.7,37.7,66,80.4,79.6,120.2
							c13.9,40.7,11,73.8-8.3,93.1C290.3,312.9,274.3,318.6,254.8,318.6z M63.8,7.3c-17.5,0-31.7,5-41.6,14.9
							C5,39.4,2.6,69.8,15.6,107.7c13.3,38.8,40.9,80.5,77.9,117.4c36.9,36.9,78.6,64.6,117.4,77.9c37.9,13,68.3,10.6,85.5-6.6
							c17.2-17.2,19.6-47.6,6.6-85.5c-13.3-38.8-40.9-80.5-77.9-117.4l0,0c-36.9-36.9-78.6-64.6-117.4-77.9
							C91.5,10.1,76.8,7.3,63.8,7.3z"/>
					</g>
				</g>
				<path class="st2" d="M158.5,81.7c0,0-0.5,66.7-76,77.6v0.8c0,0,66.7,0.5,77.6,76v0.8c0,0,0.5-66.7,76-77.6v-0.8
					c0,0-66.7-0.5-77.6-76V81.7z"/>
			</g>
		</g>
		<g>
			<g>
				<path class="st2" d="M458.8,190.4h63.8v32h-99.5V73.5h35.7V190.4z"/>
				<path class="st2" d="M606.5,194.4h-3c-6,18.6-18.4,30.5-38.5,30.5c-19.9,0-34.5-10.2-34.5-33.3c0-21.1,12.4-35.7,43.4-35.7h30.8
					v-8.2c0-12.2-5.2-19.1-18.1-19.1c-11.2,0-17.6,5.5-19.9,16.9l-31.8-7.2c4-21.3,20.4-36.5,52.9-36.5c35.7,0,50.4,16.4,50.4,45.9
					v74.7h-31.8V194.4z M604.8,177.2v-4.7h-24.3c-10.9,0-17.9,5-17.9,13.2c0,7.4,4.2,13.4,17.1,13.4
					C595.1,199.1,604.8,189.9,604.8,177.2z"/>
				<path class="st2" d="M646.7,262.4l5-28.5c5,1,10.2,1.7,15.1,1.7c11.9,0,18.1-2.2,23.6-14.6l-44.2-116.2h37l11.7,43.2
					c3.5,13.2,7.7,28.3,11.4,42.7h4.2c3.7-14.6,7.7-29.3,10.7-42l10.9-43.9h36.2l-46.4,118.2c-11.4,28.8-26.3,41.2-55.9,41.2
					C657.9,264.1,652.9,263.4,646.7,262.4z"/>
				<path class="st2" d="M769.1,166.1c0-40.7,22.1-64.5,60.3-64.5c36.2,0,53.4,21.3,53.4,53.9c0,5-0.2,9.7-0.7,15.9h-79.7
					c2,18.9,10.7,27.3,26.8,27.3c15.9,0,20.9-7.4,23.8-16.4l28.3,7.7c-5.2,20.4-18.9,35.7-52.4,35.7
					C793.4,225.6,769.1,206,769.1,166.1z M802.6,154.2h49.2c-0.5-18.4-8.2-27.3-23.3-27.3C813,126.8,804.3,134.8,802.6,154.2z"/>
				<path class="st2" d="M898.9,222.4V104.8h32V143h2.7c7.4-32.8,17.4-39.5,32.8-39.5h3.5v38.7h-7c-23.6,0-30.3,7-30.3,27.8v52.4
					H898.9z"/>
				<path class="st2" d="M1074.2,189.4h-57.6l-10.2,33h-37l52.1-148.9h49.2l51.9,148.9h-38.2L1074.2,189.4z M1024.8,163.3h41.2
					l-5.7-18.4c-4.2-13.4-8.2-27.3-11.7-40.7h-6c-3.7,13.4-7.9,27.3-12.2,40.7L1024.8,163.3z"/>
				<path class="st2" d="M1130.8,222.4V73.5h35.7v148.9H1130.8z"/>
			</g>
		</g>
	</g>
</g>
</svg>
