<svg xmlns="http://www.w3.org/2000/svg" width="98" height="40">
  <path fill="#CBD5E1" fill-rule="nonzero" d="M49.3 4.365c.666.03 1.303.282 1.807.713.687.642.867 1.713.542 2.57-1.264 2.569-4.272 4.284-6.326 4.852-1.23.285-2.784.285-3.905-.143-.542.321-1 1.359-1.663.928-.959-.74-.129-1.896-.682-2.717-.115-.17-.402-.182-.547-.458-.76-1.642.181-3.212 1.23-4.46 1.747-1.925 6.76-4.068 9.543-1.285Zm-5.821 1.284c-.977.178-2.08.598-2.675 1.285-.597.686-.976 1.356-.615 2.07 1.266-.928 1.88-2.213 3.29-2.998 0-.143.217-.25 0-.357Zm5.893.357c-2.495-.214-4.375 1.642-6.146 3.425-.109.286-.76.607-.253.928 2.386.214 4.664-.463 6.399-2.034.507-.464.867-1.07.615-1.713a1.27 1.27 0 0 0-.615-.606ZM70.99 16.64c1.157 2.783 2.132 7.171 0 9.848-.579.642-1.59 1.234-2.241.749-2.387-1.89-3.398-4.603-4.88-7.03-.217-.106-.217.18-.326.286-.542 2.462.47 5.674-1.229 7.6-.65.107-1.259-.223-1.482-.856-.832-2.533.035-5.174.252-7.707.507-1.285.723-2.783 1.844-3.747 1.808.714 2.675 2.712 3.723 4.175.76 1.106 1.374 2.355 2.241 3.354.76-.321.386-1.3.362-1.891-.29-2.32-.94-4.46-1.555-6.672-.036-.57-.36-1.535.253-1.891 1.629.714 2.314 2.39 3.038 3.782Zm-10.918-.857c0 .536-.434 1.205-.796 1.285-3.47.535-7.338.214-10.592 1.284-.108.393.362.464.615.57 2.783.429 5.712.536 8.423 1.214 1.434.36 1.953 2.035 2.061 3.426.067 1.097-.36 2.426-1.446 3.175-2.674 1.678-6.76 1.606-9.472.072-1.036-.574-2.024-1.498-2.096-2.64.006-.907.398-1.62 1.048-1.962 2.604-1.035 5.82-.463 8.063.856.143.714-.64.675-1.014.928-2.495 1.427-4.374-1.605-6.688-.5-.325.214-.56.811-.18 1 2.855 1.248 6.037.356 8.856-.429.326-.107.724-.428.76-.749-.109-1.142-1.41-1.391-2.242-1.712-2.458-.607-5.17-.607-7.809-.856-.506-.107-1.15-.455-1.3-.856-.29-.857-.29-2.034.36-2.748 3.362-2.926 8.46-2.675 12.725-1.89.29.104.615.211.724.532Zm-15.798 1.356c.326 3.425.506 6.602.434 10.205-.072.463-.614.57-.976.749-.578.107-1.325-.014-1.554-.321-.832-1.32-.542-3.104-.615-4.71.109-2.532.073-5.28.796-7.635.138-.343.542-.642.867-.429.868.429 1.012 1.285 1.048 2.141Zm40.165-.5c.174.29.356.735 0 .928-1.627.714-3.831.393-5.712.607-.506.428-.904 1.141-.724 1.784.182.107.344.27.543.25 1.156.07 2.892-.536 3.652.534.186.319-.025 1.508-.542 1.535-1.41.179-3.73-.175-4.411.179-.868.57-.796 1.676-1.121 2.57.615.392 1.259-.01 1.988-.108 1.338-.214 2.82-.607 4.158-.321.253.463.614.963.36 1.534-2.278 1.784-5.218 3.613-8.35 2.32-1.175-.52-1.699-2.284-1.3-3.782.252-1.07 1.372-2.105.686-3.247-.108-.5.181-.928.615-1.035 1.193 0 .94-1.463 1.554-2.14-.686-.75-2.421-.714-2.24-2.213.831-.428 1.844-.285 2.782-.428 2.133-.429 4.52-.678 6.69-.429.432.086 1.01.928 1.372 1.463ZM32.814 8.505c3.336 2.691 7.664 7.279 7.122 12.56-.65 4.174-5.133 7.314-8.93 8.313-3.687 1.07-8.314.963-12.074.107-.253.678-.506 1.498-1.301 1.784-.506.179-1.158.072-1.555-.25-1.12-1.034-.217-3.033-1.844-3.674-3.181-1.32-6.616-3.925-8.242-7.136-.217-.642.036-1.285.433-1.784 2.495-1.962 5.64-2.747 8.785-3.354.181.071.109-.178.253-.25.181-2.14.253-4.318.94-6.244a.569.569 0 0 1 .796-.179c1.988 1.499 1.048 4.318 1.916 6.351 3.796.179 7.592.357 10.592 2.463 1.013.82 1.26 2.387.94 3.282-.32.894-1.374 1.535-2.35 1.605-.651 0-1.88.063-1.808-.427.073-.491 2.212-1.294 1.555-1.963-.944-.962-5.67-1.535-8.598-1.891-.362-.072-.693.035-.693.428-.072 2.711-.29 5.708.18 8.314.037.179.254.393.435.427 5.17.821 10.628.357 14.677-2.569 1.88-1.497 2.495-3.604 2.17-5.923-1.628-6.458-8.46-10.347-14.064-12.845A40.002 40.002 0 0 0 4.182 2.402c-1.03.075-2.663.426-2.675.786-.012.36 1.85.246 1.626.927-.222.68-2.114.277-2.675.107-.56-.17-.506-.963-.361-1.463C1.507.297 5.442.1 7.219.012c9.833-.25 19.341 3.446 25.595 8.492ZM15.1 18.066c-2.495.036-5.134.286-7.447 1.142-.47.178-1.049.678-.687 1.284.94 1.249 2.283 2.274 3.542 2.997 1.26.723 2.929 1.642 4.447 1.856.362-2.32.362-4.603.326-6.993-.145-.072 0-.214-.18-.286Zm74.725-3.247c-.109 3.104-3.038 5.031-3.038 8.135.109.107.182.25.326.18 2.35-2.534 4.663-6.138 8.098-7.208.905-.071 1.723.705 2.061 1.285 1.193 2.355.905 5.673-.758 7.814-1.717 2.101-4.7 4.21-8.098 3.853a45.292 45.292 0 0 0-2.93 10.776c-.288.749-.975.071-1.408-.072-2.928-2.283-.524-8.328-.326-9.1.199-.769.983-2.583 1.556-4.103-1.374-2.425-.507-5.352.613-7.6.868-1.499 2.062-2.997 3.472-4.139.179 0 .323.036.432.18Zm5.821 3.854c-.433-.072-.615.5-.976.607-1.662 1.855-3.326 3.71-4.158 5.923 1.122.142 2.061-.571 3.038-.964 1.663-1.034 2.711-2.746 2.603-4.71-.073-.321-.362-.57-.507-.856Z"/>
</svg>
