<svg xmlns="http://www.w3.org/2000/svg" width="132" height="22">
  <path fill="#CBD5E1" fill-rule="nonzero" d="M51.78 2.01a2.01 2.01 0 0 0 2.006 1.937 2.01 2.01 0 0 0 2.006-1.937C55.792.9 54.894 0 53.786 0c-1.109 0-2.007.9-2.007 2.01Zm31.657 13.408c0 .817.492 1.553 1.245 1.864a2.01 2.01 0 0 0 2.194-.441 2.019 2.019 0 0 0 .43-2.2 2.012 2.012 0 0 0-3.869.777Zm-64.575-.872c-1.727 0-2.929-1.375-2.929-3.34 0-1.966 1.202-3.338 2.93-3.338 1.737 0 2.951 1.372 2.951 3.338 0 1.996-1.187 3.34-2.952 3.34Zm0-9.614c-3.655 0-6.309 2.64-6.309 6.272 0 3.633 2.655 6.273 6.309 6.273 3.67 0 6.334-2.638 6.334-6.273 0-3.634-2.663-6.275-6.333-6.275l-.001.003Zm29.044 6.586a2.99 2.99 0 0 0-.478-.676l-.112-.116.118-.112c.184-.196.352-.407.503-.63l3.213-4.805h-3.918l-2.424 3.759c-.137.201-.414.302-.828.302h-.552V2.134c0-1.421-.885-1.615-1.84-1.615h-1.634l.004 16.773h3.471V12.26h.326c.395 0 .663.046.788.262l1.914 3.62c.535.983 1.067 1.148 2.07 1.148h2.66l-1.982-3.281-1.313-2.492.014.001ZM64.739 4.9c-1.766 0-2.892.787-3.524 1.452l-.21.213-.075-.29c-.184-.714-.81-1.103-1.75-1.103h-1.556l.01 12.114h3.447v-5.583c0-.546.07-1.02.215-1.452.383-1.309 1.453-2.122 2.79-2.122 1.076 0 1.496.57 1.496 2.04v5.277c0 1.255.58 1.842 1.833 1.842h1.64l-.005-7.706c0-3.06-1.491-4.68-4.312-4.68l.001-.002Zm-10.9.277h-1.635l.011 12.115h1.743l.061.003.813-.003h.808v-.004h.005l.007-10.27c0-1.239-.59-1.84-1.813-1.84Zm-21.442 9.368c-1.727 0-2.93-1.375-2.93-3.34 0-1.966 1.202-3.338 2.932-3.338s2.95 1.372 2.95 3.337c0 1.997-1.187 3.34-2.95 3.34h-.002Zm0-9.614c-3.658 0-6.313 2.639-6.313 6.272 0 3.633 2.655 6.272 6.316 6.272s6.334-2.638 6.334-6.272c0-3.634-2.655-6.275-6.334-6.275l-.003.003Zm73.872 9.615c-1.727 0-2.931-1.375-2.931-3.34 0-1.966 1.204-3.338 2.931-3.338 1.735 0 2.952 1.372 2.952 3.338 0 1.996-1.187 3.34-2.952 3.34Zm0-9.614c-3.658 0-6.312 2.64-6.312 6.272 0 3.633 2.655 6.273 6.312 6.273 3.666 0 6.334-2.638 6.334-6.273 0-3.634-2.655-6.275-6.334-6.275v.003Zm-30.038 9.08c-1.858 0-2.519-1.646-2.519-3.191 0-.68.17-2.898 2.34-2.898 1.078 0 2.514.313 2.514 3.01 0 2.544-1.27 3.077-2.336 3.077l.001.003Zm4.1-8.864c-.644 0-1.14.262-1.377.74l-.093.184-.157-.14c-.548-.482-1.53-1.054-3.125-1.054-3.176 0-5.314 2.426-5.314 6.034 0 3.608 2.212 6.126 5.377 6.126 1.08 0 1.936-.257 2.613-.778l.275-.2v.336c0 1.618-1.028 2.511-2.893 2.511a6.754 6.754 0 0 1-2.285-.428c-.719-.221-1.143-.038-1.432.697l-.27.678-.381.991.234.126c1.195.644 2.749 1.029 4.153 1.029 2.89 0 6.27-1.505 6.27-5.74l.013-11.112H80.33Zm-74.55 9.26-2.697-.003v-3.36c0-.72.269-1.092.857-1.179h1.84c1.313 0 2.15.862 2.15 2.258-.001 1.434-.829 2.282-2.15 2.282v.002ZM3.085 5.34v-.885c0-.774.315-1.142 1.004-1.19h1.38c1.183 0 1.881.738 1.881 1.974 0 .941-.486 2.04-1.85 2.04H3.073l.012-1.939Zm6.142 3.355-.488-.286.426-.378c.497-.444 1.325-1.442 1.325-3.164 0-2.638-1.962-4.34-4.997-4.34H1.63C.728.562.01 1.328 0 2.269v14.967h5.561c3.376 0 5.555-1.916 5.555-4.882 0-1.596-.704-2.963-1.887-3.657l-.003-.001ZM128 4.946a4.747 4.747 0 0 0-3.7 1.797l-.25.316-.195-.354c-.64-1.166-1.738-1.759-3.265-1.759-1.603 0-2.677.896-3.176 1.428l-.327.355-.14-.467c-.182-.672-.778-1.04-1.68-1.04h-1.45l-.014 12.068h3.29v-5.327c.003-.475.061-.95.175-1.411.315-1.288 1.178-2.674 2.63-2.534.894.087 1.333.78 1.333 2.118v7.154h3.314v-5.327c-.012-.492.05-.984.186-1.457.28-1.23 1.168-2.49 2.569-2.49 1.014 0 1.388.575 1.388 2.12v5.39c0 1.218.543 1.764 1.761 1.764h1.548L132 9.586c0-3.08-1.353-4.64-4.013-4.64H128ZM98.038 13.1c-.01.014-1.426 1.508-3.291 1.508-1.7 0-3.415-1.045-3.415-3.374 0-2.013 1.33-3.42 3.236-3.42.618 0 1.322.22 1.432.595l.014.063c.145.529.627.894 1.174.891l1.817.003v-1.58c0-2.082-2.646-2.838-4.424-2.838-3.806 0-6.567 2.654-6.567 6.311s2.73 6.306 6.497 6.306c3.267 0 5.03-2.152 5.06-2.173l.096-.118-1.428-2.373-.189.2-.012-.001Z"/>
</svg>
