<svg xmlns="http://www.w3.org/2000/svg" width="40" height="40">
  <g fill="none" fill-rule="evenodd">
    <circle cx="20" cy="20" r="20" fill="#EE5A29"/>
    <path fill="#FFE6DE" fill-rule="nonzero" d="M24.174 16.77c.783 0 1.506.298 2.046.783a.54.54 0 0 0 .888-.43v-3.02A1.11 1.11 0 0 0 26.005 13H15.103c-.618 0-1.103.485-1.103 1.103v11.821c0 .59.485 1.076 1.103 1.076h10.933a1.11 1.11 0 0 0 1.103-1.103V22.88c0-.458-.54-.728-.888-.43-.567.485-1.267.782-2.045.782-1.776 0-3.204-1.455-3.204-3.231-.004-1.78 1.424-3.231 3.172-3.231Z"/>
  </g>
</svg>
