<svg xmlns="http://www.w3.org/2000/svg" width="40" height="40">
  <defs>
    <radialGradient id="b" cx="50.014%" cy="54.715%" r="72.93%" fx="50.014%" fy="54.715%" gradientTransform="matrix(.9091 0 0 1 .045 0)">
      <stop offset="0%" stop-color="#FFB900"/>
      <stop offset="60%" stop-color="#F95D8F"/>
      <stop offset="99.9%" stop-color="#F95353"/>
    </radialGradient>
    <linearGradient id="a" x1="50%" x2="50%" y1="0%" y2="100%">
      <stop offset="0%" stop-color="#F8FAFC"/>
      <stop offset="100%" stop-color="#E2E8F0"/>
    </linearGradient>
  </defs>
  <g fill="none" fill-rule="evenodd">
    <circle cx="20" cy="20" r="20" fill="url(#a)"/>
    <path fill="url(#b)" fill-rule="nonzero" d="M24.412 20.441c-1.982 0-3.589 1.58-3.589 3.53 0 1.949 1.607 3.529 3.589 3.529 1.981 0 3.588-1.58 3.588-3.53 0-1.949-1.607-3.529-3.588-3.529Zm-9.324 0c-1.981 0-3.588 1.58-3.588 3.53 0 1.949 1.607 3.529 3.588 3.529 1.982 0 3.59-1.58 3.59-3.53 0-1.949-1.608-3.529-3.59-3.529Zm8.25-4.412c0 1.95-1.606 3.53-3.588 3.53s-3.588-1.58-3.588-3.53c0-1.949 1.606-3.529 3.588-3.529s3.588 1.58 3.588 3.53Z"/>
  </g>
</svg>
