<svg xmlns="http://www.w3.org/2000/svg" width="40" height="40">
  <defs>
    <linearGradient id="a" x1="50%" x2="50%" y1="0%" y2="100%">
      <stop offset="0%" stop-color="#F8FAFC"/>
      <stop offset="100%" stop-color="#E2E8F0"/>
    </linearGradient>
  </defs>
  <g fill="none" fill-rule="evenodd">
    <circle cx="20" cy="20" r="20" fill="url(#a)"/>
    <g fill="#0B0909" fill-rule="nonzero">
      <path d="M27.38 26c1.75 0 3.084-.542 3.792-1.291.375-.417.814-1.062.5-1.562-.27-.437-.729-.52-1.271-.25a4.029 4.029 0 0 1-1.834.417c-.666 0-1.376-.25-1.75-.625a2.372 2.372 0 0 1-.709-1.73c0-.167.104-.187.292-.041.479.374 1.188.562 2.147.562 1.77 0 3.334-1.188 3.334-3.02 0-1.937-1.835-3.374-4.606-3.374-3.105 0-5.501 1.999-5.501 5.373C21.775 23.605 23.859 26 27.38 26ZM14.564 22.706c.333 0 .52.188.75.542l1 1.562c.375.604.688 1.02 1.418 1.02s1.063-.29 1.417-1.103c.437-1 .896-2.208 1.312-3.832.459-1.813.667-2.937.667-3.853 0-.917-.292-1.458-1.291-1.646-1.376-.25-3.23-.396-5.273-.396-2.043 0-3.896.146-5.272.396-1 .188-1.292.728-1.292 1.645 0 .916.209 2.04.666 3.853a24.393 24.393 0 0 0 1.314 3.832c.354.812.688 1.103 1.417 1.103.73 0 1.043-.416 1.418-1.02l1-1.562c.228-.353.416-.54.749-.54Z"/>
    </g>
  </g>
</svg>
