<svg xmlns="http://www.w3.org/2000/svg" width="40" height="40">
  <defs>
    <linearGradient id="a" x1="50%" x2="50%" y1="0%" y2="100%">
      <stop offset="0%" stop-color="#F8FAFC"/>
      <stop offset="100%" stop-color="#E2E8F0"/>
    </linearGradient>
  </defs>
  <g fill="none" fill-rule="evenodd">
    <circle cx="20" cy="20" r="20" fill="url(#a)"/>
    <g fill-rule="nonzero">
      <path fill="#4185F3" d="M23.154 22.805h-6.506l-2.786 4.867c.335.17.716.28.962.28 2.56 0 7.782-.039 10.375-.039.267 0 .516-.09.74-.233l-2.785-4.875Z"/>
      <path fill="#1767D1" d="m13.862 27.672 2.786-4.867h-5.646c-.002.339.118.648.306 1.001.525.982 1.413 2.552 1.935 3.372.128.202.639.504.619.494Z"/>
      <path fill="#E94235" d="m23.154 22.805 2.786 4.874c.361-.23.655-.593.846-.927.432-.755 1.161-2.013 1.664-2.864.234-.395.325-.75.32-1.083h-5.616Z"/>
      <path fill="#30A753" d="m16.648 22.806 3.25-5.65-2.904-4.842c-.314.207-.583.487-.705.7-1.268 2.224-3.822 6.78-5.106 9.033-.131.23-.194.494-.181.759h5.646Z"/>
      <path fill="#F9BC00" d="m23.154 22.806-3.256-5.65 2.825-4.837c.314.207.659.482.78.696 1.268 2.223 3.822 6.78 5.107 9.032.132.231.172.494.16.759h-5.616Z"/>
      <path fill="#0F8038" d="m16.993 12.315 2.905 4.841 2.825-4.837c-.292-.17-.705-.27-1.105-.284-1.112-.037-2.916-.052-3.887-.01-.24.011-.735.288-.738.29Z"/>
    </g>
  </g>
</svg>
