<svg xmlns="http://www.w3.org/2000/svg" width="40" height="40">
  <g fill="none" fill-rule="evenodd">
    <circle cx="20" cy="20" r="20" fill="#10B981"/>
    <path fill="#FFF" d="M17.329 11.5c-.96 0-1.879.38-2.557 1.059L11.5 15.831v1.498c0 1.058.455 2.01 1.179 2.671a3.606 3.606 0 0 0-1.179 2.671v1.498l3.272 3.272a3.616 3.616 0 0 0 5.228-.12 3.616 3.616 0 0 0 5.228.12l3.272-3.272v-1.498c0-1.058-.454-2.01-1.179-2.671a3.606 3.606 0 0 0 1.179-2.671V15.83l-3.272-3.272a3.616 3.616 0 0 0-5.228.12 3.606 3.606 0 0 0-2.671-1.179Zm5.118 8.5a3.624 3.624 0 0 1-.12-.115L20 17.558l-2.328 2.327c-.039.04-.079.078-.12.115.041.037.081.075.12.115L20 22.442l2.328-2.327c.039-.04.079-.078.12-.115Zm-1.503 4.169v.715a1.727 1.727 0 0 0 2.948 1.221l2.72-2.718v-.716a1.727 1.727 0 0 0-2.949-1.22l-2.719 2.718Zm-1.888 0-2.72-2.719a1.727 1.727 0 0 0-2.947 1.221v.716l2.719 2.718a1.727 1.727 0 0 0 2.948-1.22v-.716Zm0-9.053v.715l-2.72 2.719a1.727 1.727 0 0 1-2.947-1.221v-.716l2.719-2.718a1.727 1.727 0 0 1 2.948 1.22Zm4.607 3.434-2.719-2.719v-.715a1.727 1.727 0 0 1 2.948-1.221l2.72 2.718v.716a1.727 1.727 0 0 1-2.949 1.22Z"/>
  </g>
</svg>
