<svg xmlns="http://www.w3.org/2000/svg" width="40" height="40">
  <g fill="none" fill-rule="evenodd">
    <circle cx="20" cy="20" r="20" fill="#FF3C00"/>
    <g fill="#FFD9CD" fill-rule="nonzero">
      <path d="M18.544 19.135c1.745-.957 4.109-2.28 4.109-6.135h-2.899c0 2.139-1.041 2.73-2.645 3.602-1.745.957-4.109 2.28-4.109 6.135h2.87c.029-2.139 1.07-2.701 2.674-3.602ZM23.525 18.263c0 2.139-1.04 2.73-2.645 3.602-1.745.957-4.109 2.28-4.109 6.135h2.87c0-2.139 1.042-2.73 2.646-3.602 1.745-.957 4.109-2.28 4.109-6.135h-2.87Z"/>
    </g>
  </g>
</svg>
