<svg xmlns="http://www.w3.org/2000/svg" width="40" height="40">
  <defs>
    <linearGradient id="a" x1="50%" x2="50%" y1="0%" y2="100%">
      <stop offset="0%" stop-color="#F8FAFC"/>
      <stop offset="100%" stop-color="#E2E8F0"/>
    </linearGradient>
  </defs>
  <g fill="none" fill-rule="evenodd">
    <circle cx="20" cy="20" r="20" fill="url(#a)"/>
    <g fill-rule="nonzero" opacity=".88">
      <path fill="#FCB400" d="m19.02 12.202-7.114 2.943a.477.477 0 0 0 .007.883l7.143 2.833a2.65 2.65 0 0 0 1.954 0l7.143-2.833a.476.476 0 0 0 .007-.883l-7.113-2.944a2.65 2.65 0 0 0-2.027 0"/>
      <path fill="#18BFFF" d="M20.667 20.408v7.076c0 .337.34.567.652.443l7.96-3.09a.476.476 0 0 0 .3-.442v-7.077a.477.477 0 0 0-.652-.443l-7.96 3.09a.477.477 0 0 0-.3.443"/>
      <path fill="#F82B60" d="m18.808 20.773-2.362 1.14-.24.116-4.986 2.39c-.316.152-.72-.078-.72-.43v-6.641c0-.127.065-.237.152-.32a.542.542 0 0 1 .121-.09.508.508 0 0 1 .434-.033l7.561 2.996c.385.152.415.691.04.872"/>
      <path fill="#000" fill-opacity=".25" d="m18.808 20.773-2.362 1.14-5.794-4.884a.542.542 0 0 1 .121-.09.508.508 0 0 1 .434-.034l7.561 2.996c.385.152.415.691.04.872"/>
    </g>
  </g>
</svg>
