<svg xmlns="http://www.w3.org/2000/svg" width="40" height="40">
  <defs>
    <linearGradient id="a" x1="50%" x2="50%" y1="0%" y2="100%">
      <stop offset="0%" stop-color="#F8FAFC"/>
      <stop offset="100%" stop-color="#E2E8F0"/>
    </linearGradient>
  </defs>
  <g fill="none" fill-rule="evenodd">
    <circle cx="20" cy="20" r="20" fill="url(#a)"/>
    <path fill="#22AD01" fill-rule="nonzero" d="M23.953 14.265h-5.39v7.218h2.941V18.55h-2.222v-2.265h3.3c.33 0 .629.133.843.35.217.214.35.517.35.843v6.271h-6.289c-.33 0-.629-.133-.843-.35a1.188 1.188 0 0 1-.35-.843V12h7.66c1.134 0 2.158.46 2.905 1.205a4.093 4.093 0 0 1 1.206 2.898v10.822c0 .608-.496 1.103-1.106 1.103H16.111a4.094 4.094 0 0 1-2.905-1.205A4.077 4.077 0 0 1 12 23.926V16.28h3.57v2.265h-1.303v5.38c0 .504.206.964.54 1.298.336.335.795.54 1.3.54h9.682v-9.66a1.83 1.83 0 0 0-.541-1.298c-.33-.33-.787-.54-1.295-.54Z"/>
  </g>
</svg>
