<svg xmlns="http://www.w3.org/2000/svg" width="40" height="40">
  <defs>
    <linearGradient id="a" x1="50%" x2="50%" y1="0%" y2="100%">
      <stop offset="0%" stop-color="#FFF"/>
      <stop offset="100%" stop-color="#FFF" stop-opacity=".64"/>
    </linearGradient>
  </defs>
  <g fill="none" fill-rule="evenodd">
    <circle cx="20" cy="20" r="20" fill="#5E6AD2"/>
    <path fill="url(#a)" fill-rule="nonzero" d="M.196 9.844c-.036-.152.145-.248.255-.137l5.842 5.842c.11.11.015.29-.137.255a8.02 8.02 0 0 1-5.96-5.96ZM0 7.502a.158.158 0 0 0 .047.122l8.329 8.33c.032.031.076.049.122.046.379-.024.75-.074 1.114-.148a.156.156 0 0 0 .076-.264L.412 6.312a.156.156 0 0 0-.264.076A8.01 8.01 0 0 0 0 7.502Zm.674-2.75a.158.158 0 0 0 .033.177l10.364 10.364c.046.046.116.06.176.033.286-.127.563-.27.83-.43a.157.157 0 0 0 .03-.246L1.35 3.894a.157.157 0 0 0-.247.03 7.983 7.983 0 0 0-.43.829Zm1.351-1.86a.158.158 0 0 1-.007-.217 8.008 8.008 0 1 1 11.307 11.307.158.158 0 0 1-.217-.007L2.025 2.892Z" transform="translate(12 12)"/>
  </g>
</svg>
