<svg xmlns="http://www.w3.org/2000/svg" width="40" height="40">
  <defs>
    <linearGradient id="a" x1="50%" x2="50%" y1="0%" y2="100%">
      <stop offset="0%" stop-color="#F8FAFC"/>
      <stop offset="100%" stop-color="#E2E8F0"/>
    </linearGradient>
  </defs>
  <g fill="none" fill-rule="evenodd">
    <circle cx="20" cy="20" r="20" fill="url(#a)"/>
    <g fill-rule="nonzero">
      <path fill="#0A1551" d="M16.985 27.205c.303.293.09.795-.34.795h-2.684c-.53 0-.961-.418-.961-.931v-2.603c0-.415.518-.622.82-.33l3.165 3.07Z"/>
      <path fill="#FFB629" d="M21.182 27.408a2.012 2.012 0 0 1 0-2.859L24.05 21.7a2.044 2.044 0 0 1 2.877 0c.795.79.795 2.07 0 2.859l-2.868 2.849c-.794.79-2.082.79-2.877 0Z"/>
      <path fill="#09F" d="M13.606 20.249a2.012 2.012 0 0 1 0-2.859l4.826-4.798a2.044 2.044 0 0 1 2.877 0c.795.79.795 2.07 0 2.859l-4.826 4.798c-.794.79-2.083.79-2.877 0Z"/>
      <path fill="#FF6100" d="M17.551 23.669a2.012 2.012 0 0 1 0-2.86l6.521-6.478a2.044 2.044 0 0 1 2.878 0c.794.79.794 2.07 0 2.86l-6.521 6.478c-.795.79-2.083.79-2.878 0Z"/>
    </g>
  </g>
</svg>
