<svg xmlns="http://www.w3.org/2000/svg" width="40" height="40">
  <defs>
    <linearGradient id="a" x1="50%" x2="50%" y1="0%" y2="100%">
      <stop offset="0%" stop-color="#F8FAFC"/>
      <stop offset="100%" stop-color="#E2E8F0"/>
    </linearGradient>
  </defs>
  <g fill="none" fill-rule="evenodd">
    <circle cx="20" cy="20" r="20" fill="url(#a)"/>
    <g fill="#020202" fill-rule="nonzero" opacity=".98">
      <path d="M14.857 14.215h2.572a.643.643 0 0 0 .642-.643v-1.93a.643.643 0 0 1 .643-.642h1.929a.643.643 0 0 1 .642.643v1.929a.643.643 0 0 1-.642.643h-1.93a.643.643 0 0 0-.642.642v2.572a.643.643 0 0 1-.642.643h-2.572a.643.643 0 0 1-.643-.643v-2.572a.643.643 0 0 1 .643-.642ZM14.215 25.142v-2.571a.643.643 0 0 0-.643-.643h-1.93a.643.643 0 0 1-.642-.643v-1.928a.643.643 0 0 1 .643-.643h1.929a.643.643 0 0 1 .643.643v1.928a.643.643 0 0 0 .642.643h2.572a.643.643 0 0 1 .643.643v2.571a.643.643 0 0 1-.643.643h-2.572a.643.643 0 0 1-.642-.643ZM25.143 25.785H22.57a.643.643 0 0 0-.643.642v1.93a.642.642 0 0 1-.642.642h-1.929a.643.643 0 0 1-.643-.642v-1.93a.643.643 0 0 1 .643-.642h1.929a.643.643 0 0 0 .642-.643V22.57a.643.643 0 0 1 .643-.642h2.572a.643.643 0 0 1 .642.642v2.572a.642.642 0 0 1-.642.643ZM25.785 14.857v2.572a.643.643 0 0 0 .643.642h1.93a.642.642 0 0 1 .642.643v1.929a.643.643 0 0 1-.643.642h-1.93a.643.643 0 0 1-.642-.642v-1.93a.643.643 0 0 0-.642-.642H22.57a.643.643 0 0 1-.643-.642v-2.572a.643.643 0 0 1 .643-.643h2.572a.643.643 0 0 1 .642.643Z"/>
    </g>
  </g>
</svg>
