<svg xmlns="http://www.w3.org/2000/svg" width="40" height="40">
  <g fill="none" fill-rule="evenodd">
    <circle cx="20" cy="20" r="20" fill="#F4466E"/>
    <path fill="#FFF" fill-rule="nonzero" d="M15.68 14.918c.807 0 1.482-.631 1.482-1.46 0-.826-.675-1.458-1.481-1.458s-1.481.632-1.481 1.459c0 .828.675 1.46 1.48 1.46m-3.07 7.814c-.087.37-.13.77-.13 1.097 0 1.285.696 2.138 2.177 2.138 1.228 0 2.224-.73 2.941-1.907l-.438 1.757h2.44l1.394-5.591c.348-1.416 1.023-2.15 2.047-2.15.806 0 1.307.5 1.307 1.328 0 .24-.022.5-.11.784l-.718 2.57c-.109.37-.152.74-.152 1.089 0 1.22.718 2.112 2.221 2.112 1.285 0 2.309-.827 2.875-2.809l-.958-.37c-.48 1.328-.893 1.568-1.22 1.568-.327 0-.501-.218-.501-.653 0-.196.044-.414.109-.676l.697-2.503c.174-.588.24-1.11.24-1.589 0-1.873-1.133-2.85-2.505-2.85-1.285 0-2.592 1.159-3.245 2.379l.479-2.19h-3.724l-.523 1.929h1.742l-1.073 4.296c-.842 1.873-2.39 1.903-2.584 1.86-.32-.072-.523-.194-.523-.608 0-.24.043-.583.152-.997l1.634-6.48h-4.138L12 18.196h1.72l-1.11 4.537"/>
  </g>
</svg>
