<svg xmlns="http://www.w3.org/2000/svg" width="40" height="40">
  <g fill="none" fill-rule="evenodd">
    <circle cx="20" cy="20" r="20" fill="#FF4A00"/>
    <path fill="#FFF" fill-rule="nonzero" d="M22 20.003c0 .577-.104 1.15-.307 1.69a4.797 4.797 0 0 1-1.69.307h-.006c-.595 0-1.164-.11-1.69-.307a4.785 4.785 0 0 1-.307-1.69v-.006c0-.577.104-1.15.307-1.69a4.78 4.78 0 0 1 1.69-.307h.006c.577 0 1.15.104 1.69.308.203.54.307 1.112.307 1.688v.007Zm5.889-1.336h-4.67l3.302-3.302a8.062 8.062 0 0 0-1.886-1.886l-3.302 3.302v-4.67A8.038 8.038 0 0 0 20.004 12h-.008c-.453 0-.897.039-1.33.111v4.67l-3.301-3.302a7.989 7.989 0 0 0-1.021.864l-.002.001a8.05 8.05 0 0 0-.863 1.02l3.302 3.303h-4.67s-.111.877-.111 1.33v.006c0 .453.038.898.111 1.33h4.67l-3.302 3.302a8.057 8.057 0 0 0 1.886 1.886l3.302-3.302v4.67c.438.073.882.11 1.327.111h.012c.444 0 .888-.038 1.327-.111v-4.67l3.302 3.302a8.078 8.078 0 0 0 1.886-1.886l-3.302-3.302h4.67c.073-.432.11-.875.111-1.327v-.012c0-.452-.038-.895-.111-1.327Z"/>
  </g>
</svg>
