<svg width="18" height="19" viewBox="0 0 18 19" fill="none" xmlns="http://www.w3.org/2000/svg">
<path d="M17.25 0.97168H5.25C5.05109 0.97168 4.86032 1.0507 4.71967 1.19135C4.57902 1.332 4.5 1.52277 4.5 1.72168V5.47168H0.75C0.551088 5.47168 0.360322 5.5507 0.21967 5.69135C0.0790178 5.832 0 6.02277 0 6.22168V18.2217C0 18.4206 0.0790178 18.6114 0.21967 18.752C0.360322 18.8927 0.551088 18.9717 0.75 18.9717H12.75C12.9489 18.9717 13.1397 18.8927 13.2803 18.752C13.421 18.6114 13.5 18.4206 13.5 18.2217V14.4717H17.25C17.4489 14.4717 17.6397 14.3927 17.7803 14.252C17.921 14.1114 18 13.9206 18 13.7217V1.72168C18 1.52277 17.921 1.332 17.7803 1.19135C17.6397 1.0507 17.4489 0.97168 17.25 0.97168ZM12 17.4717H1.5V6.97168H12V17.4717ZM16.5 12.9717H13.5V6.22168C13.5 6.02277 13.421 5.832 13.2803 5.69135C13.1397 5.5507 12.9489 5.47168 12.75 5.47168H6V2.47168H16.5V12.9717Z" fill="#300E67"/>
</svg>
