<svg width="21" height="19" viewBox="0 0 21 19" fill="none" xmlns="http://www.w3.org/2000/svg">
<path d="M20.25 8.47168H11.25V6.22168H12C12.3978 6.22168 12.7794 6.06364 13.0607 5.78234C13.342 5.50104 13.5 5.1195 13.5 4.72168V1.72168C13.5 1.32385 13.342 0.942324 13.0607 0.661019C12.7794 0.379715 12.3978 0.22168 12 0.22168H9C8.60218 0.22168 8.22064 0.379715 7.93934 0.661019C7.65804 0.942324 7.5 1.32385 7.5 1.72168V4.72168C7.5 5.1195 7.65804 5.50104 7.93934 5.78234C8.22064 6.06364 8.60218 6.22168 9 6.22168H9.75V8.47168H0.75C0.551088 8.47168 0.360322 8.5507 0.21967 8.69135C0.0790176 8.832 0 9.02277 0 9.22168C0 9.42059 0.0790176 9.61136 0.21967 9.75201C0.360322 9.89266 0.551088 9.97168 0.75 9.97168H3.75V12.9717H3C2.60218 12.9717 2.22064 13.1297 1.93934 13.411C1.65804 13.6923 1.5 14.0739 1.5 14.4717V17.4717C1.5 17.8695 1.65804 18.251 1.93934 18.5323C2.22064 18.8136 2.60218 18.9717 3 18.9717H6C6.39782 18.9717 6.77936 18.8136 7.06066 18.5323C7.34196 18.251 7.5 17.8695 7.5 17.4717V14.4717C7.5 14.0739 7.34196 13.6923 7.06066 13.411C6.77936 13.1297 6.39782 12.9717 6 12.9717H5.25V9.97168H15.75V12.9717H15C14.6022 12.9717 14.2206 13.1297 13.9393 13.411C13.658 13.6923 13.5 14.0739 13.5 14.4717V17.4717C13.5 17.8695 13.658 18.251 13.9393 18.5323C14.2206 18.8136 14.6022 18.9717 15 18.9717H18C18.3978 18.9717 18.7794 18.8136 19.0607 18.5323C19.342 18.251 19.5 17.8695 19.5 17.4717V14.4717C19.5 14.0739 19.342 13.6923 19.0607 13.411C18.7794 13.1297 18.3978 12.9717 18 12.9717H17.25V9.97168H20.25C20.4489 9.97168 20.6397 9.89266 20.7803 9.75201C20.921 9.61136 21 9.42059 21 9.22168C21 9.02277 20.921 8.832 20.7803 8.69135C20.6397 8.5507 20.4489 8.47168 20.25 8.47168ZM9 1.72168H12V4.72168H9V1.72168ZM6 17.4717H3V14.4717H6V17.4717ZM18 17.4717H15V14.4717H18V17.4717Z" fill="#183053"/>
</svg>
